<svg width="86" height="30" viewBox="0 0 86 30" fill="none" xmlns="http://www.w3.org/2000/svg">
<rect x="0.5" y="0.5" width="85" height="29" stroke="black"/>
<path d="M18.5547 15.6406C18.4036 17.7552 17.3411 18.875 15.3672 19C13.3203 18.8958 12.2396 17.776 12.125 15.6406V7H13.5469V15.6406C13.6823 16.9271 14.2891 17.6094 15.3672 17.6875C16.4401 17.5938 17.0208 16.9115 17.1094 15.6406C17.1094 14.9479 16.849 14.3229 16.3281 13.7656C15.8073 13.2083 15.9115 12.474 16.6406 11.5625L17.8906 12.0312C17.2656 12.5677 17.2188 13.1354 17.75 13.7344C18.2865 14.3333 18.5547 14.9688 18.5547 15.6406ZM27.5766 15.6484C27.4359 17.7318 26.3708 18.849 24.3813 19C22.4073 18.875 21.337 17.8932 21.1703 16.0547L21.4203 14.8438L22.7719 15.1562L22.6156 16.0547C22.7198 17.0391 23.3135 17.5833 24.3969 17.6875C25.475 17.5885 26.0688 16.9089 26.1781 15.6484C26.0688 15.0495 25.6807 14.5547 25.0141 14.1641C23.7797 13.7839 23.0427 12.9323 22.8031 11.6094H24.1938C24.3083 12.2865 24.613 12.7266 25.1078 12.9297C26.5661 13.4714 27.3891 14.3776 27.5766 15.6484ZM36.7703 15.6406C36.6349 17.7552 35.549 18.875 33.5125 19C31.4917 18.8958 30.424 17.776 30.3094 15.6406V7H31.7313V13.2344C32.2729 12.6198 32.8667 12.3099 33.5125 12.3047C35.549 12.4297 36.6349 13.5417 36.7703 15.6406ZM35.2938 15.6406C35.1896 14.4583 34.5958 13.7969 33.5125 13.6562C32.325 13.8333 31.7313 14.4948 31.7313 15.6406C31.8146 16.9115 32.4083 17.5938 33.5125 17.6875C34.6115 17.5938 35.2052 16.9115 35.2938 15.6406ZM45.8312 21.3594C45.701 23.3802 44.6281 24.4635 42.6125 24.6094C40.5865 24.4635 39.5109 23.4062 39.3859 21.4375L39.6203 19.6328H41.0578L40.8234 21.4375C40.9068 22.6146 41.5031 23.2422 42.6125 23.3203C43.6854 23.2161 44.2818 22.5885 44.4016 21.4375V15.6641C44.3339 14.3724 43.8052 13.7031 42.8156 13.6562C41.7062 13.7188 41.149 14.2448 41.1437 15.2344C41.175 15.8906 41.4432 16.2891 41.9484 16.4297V17.8359C40.5526 17.5703 39.8182 16.7083 39.7453 15.25C39.7818 13.4427 40.8052 12.4609 42.8156 12.3047C44.6958 12.4453 45.701 13.5651 45.8312 15.6641V21.3594ZM64.8688 15.6406C64.6917 17.7031 63.6135 18.8229 61.6344 19V17.6875C62.7594 17.5729 63.3557 16.8906 63.4234 15.6406C63.4234 14.4167 62.8245 13.7552 61.6266 13.6562C60.4599 13.7552 59.874 14.4167 59.8688 15.6406V17H58.4234V15.6406C58.4234 14.4062 57.8479 13.7448 56.6969 13.6562C55.5771 13.7448 55.0146 14.4062 55.0094 15.6406V17H53.5797V15.6406C53.5745 14.3958 52.9755 13.7344 51.7828 13.6562C50.6943 13.7917 50.1031 14.6458 50.0094 16.2188C50.0094 18.6667 51.6786 19.974 55.0172 20.1406C59.538 20.3229 61.7984 21.6979 61.7984 24.2656H60.4391C60.5016 22.6458 58.6943 21.7292 55.0172 21.5156C50.7151 21.1302 48.5641 19.3646 48.5641 16.2188C48.6891 13.7344 49.762 12.4323 51.7828 12.3125C52.9755 12.3542 53.8297 12.7995 54.3453 13.6484C54.7932 12.8516 55.5771 12.4062 56.6969 12.3125C57.8479 12.3646 58.6839 12.8099 59.2047 13.6484C59.6526 12.8099 60.4599 12.3646 61.6266 12.3125C63.663 12.4167 64.7438 13.526 64.8688 15.6406ZM73.9453 15.6406C73.8099 17.5833 73.0495 18.7552 71.6641 19.1562L71.3516 17.9219C72.0495 17.5469 72.4323 16.7865 72.5 15.6406C72.4062 14.3906 71.8125 13.7292 70.7188 13.6562C69.6146 13.7448 69.0208 14.4062 68.9375 15.6406C69.0052 16.8021 69.3932 17.5625 70.1016 17.9219L69.7891 19.1562C68.3516 18.7552 67.5859 17.5833 67.4922 15.6406C67.5964 13.6302 68.6719 12.5182 70.7188 12.3047C72.7448 12.513 73.8203 13.625 73.9453 15.6406Z" fill="black"/>
</svg>
