<svg width="31" height="32" viewBox="0 0 31 32" fill="none" xmlns="http://www.w3.org/2000/svg">
<path d="M10.362 24.3333H4.70266C2.60527 24.3333 1.55659 24.3333 1.33594 24.1705C1.08806 23.9875 1.02749 23.8795 1.00064 23.5727C0.976759 23.2995 1.61949 22.2477 2.90499 20.1443C4.23224 17.9725 5.35924 14.8103 5.35924 10.3333C5.35924 7.85798 6.41281 5.48402 8.28816 3.73367C10.1635 1.98333 12.7071 1 15.3592 1C18.0114 1 20.5549 1.98333 22.4302 3.73367C24.3057 5.48402 25.3592 7.85798 25.3592 10.3333C25.3592 14.8103 26.4862 17.9725 27.8136 20.1443C29.0989 22.2477 29.7417 23.2995 29.7179 23.5727C29.6911 23.8795 29.6304 23.9875 29.3826 24.1705C29.1619 24.3333 28.1132 24.3333 26.0159 24.3333H20.3592M10.362 24.3333L10.3592 26C10.3592 28.7615 12.5979 31 15.3592 31C18.1207 31 20.3592 28.7615 20.3592 26V24.3333M10.362 24.3333H20.3592" stroke="#697BFF" stroke-width="2" stroke-linecap="round" stroke-linejoin="round"/>
</svg>
