<svg width="22" height="20" viewBox="0 0 22 20" fill="none" xmlns="http://www.w3.org/2000/svg">
<path d="M11 8.11111V18.7778M11 8.11111C11 5.62199 11 4.37743 10.5156 3.42671C10.0894 2.59043 9.40956 1.91052 8.57329 1.48441C7.62257 1 6.37801 1 3.88889 1H2.77778C2.1555 1 1.84436 1 1.60668 1.1211C1.39761 1.22763 1.22763 1.39761 1.1211 1.60668C1 1.84436 1 2.1555 1 2.77778V14.7778C1 15.4001 1 15.7112 1.1211 15.9489C1.22763 16.158 1.39761 16.3279 1.60668 16.4344C1.84436 16.5556 2.1555 16.5556 2.77778 16.5556H6.05187C6.65208 16.5556 6.95218 16.5556 7.24238 16.6073C7.49994 16.6532 7.75122 16.7292 7.99101 16.834C8.26116 16.9519 8.51086 17.1183 9.01022 17.4513L11 18.7778M11 8.11111C11 5.62199 11 4.37743 11.4844 3.42671C11.9106 2.59043 12.5904 1.91052 13.4267 1.48441C14.3774 1 15.622 1 18.1111 1H19.2222C19.8446 1 20.1557 1 20.3933 1.1211C20.6024 1.22763 20.7723 1.39761 20.8789 1.60668C21 1.84436 21 2.1555 21 2.77778V14.7778C21 15.4001 21 15.7112 20.8789 15.9489C20.7723 16.158 20.6024 16.3279 20.3933 16.4344C20.1557 16.5556 19.8446 16.5556 19.2222 16.5556H15.9481C15.3479 16.5556 15.0478 16.5556 14.7577 16.6073C14.5 16.6532 14.2488 16.7292 14.009 16.834C13.7389 16.9519 13.4891 17.1183 12.9898 17.4513L11 18.7778" stroke="#697BFF" stroke-width="2" stroke-linecap="round" stroke-linejoin="round"/>
</svg>
