<svg width="20" height="20" viewBox="0 0 20 20" fill="none" xmlns="http://www.w3.org/2000/svg">
<path d="M10 9.67742C10.5345 9.67742 10.9677 9.24413 10.9677 8.70968C10.9677 8.17523 10.5345 7.74194 10 7.74194V9.67742ZM0.967742 7.74194C0.433277 7.74194 0 8.17523 0 8.70968C0 9.24413 0.433277 9.67742 0.967742 9.67742V7.74194ZM10 7.74194C9.46555 7.74194 9.03226 8.17523 9.03226 8.70968C9.03226 9.24413 9.46555 9.67742 10 9.67742V7.74194ZM19.0323 9.67742C19.5667 9.67742 20 9.24413 20 8.70968C20 8.17523 19.5667 7.74194 19.0323 7.74194V9.67742ZM9.03226 8.70968C9.03226 9.24413 9.46555 9.67742 10 9.67742C10.5345 9.67742 10.9677 9.24413 10.9677 8.70968H9.03226ZM10.9677 0.967742C10.9677 0.433277 10.5345 0 10 0C9.46555 0 9.03226 0.433277 9.03226 0.967742H10.9677ZM1.93548 8.70968C1.93548 8.17523 1.50221 7.74194 0.967742 7.74194C0.433277 7.74194 0 8.17523 0 8.70968H1.93548ZM20 8.70968C20 8.17523 19.5667 7.74194 19.0323 7.74194C18.4978 7.74194 18.0645 8.17523 18.0645 8.70968H20ZM0 8.70968C0 9.24413 0.433277 9.67742 0.967742 9.67742C1.50221 9.67742 1.93548 9.24413 1.93548 8.70968H0ZM10 1.93548C10.5345 1.93548 10.9677 1.50221 10.9677 0.967742C10.9677 0.433277 10.5345 0 10 0V1.93548ZM18.0645 8.70968C18.0645 9.24413 18.4978 9.67742 19.0323 9.67742C19.5667 9.67742 20 9.24413 20 8.70968H18.0645ZM10 0C9.46555 0 9.03226 0.433277 9.03226 0.967742C9.03226 1.50221 9.46555 1.93548 10 1.93548V0ZM10 7.74194H0.967742V9.67742H10V7.74194ZM10 9.67742H19.0323V7.74194H10V9.67742ZM10.9677 8.70968V0.967742H9.03226V8.70968H10.9677ZM0 8.70968V13.871H1.93548V8.70968H0ZM0 13.871C0 17.256 2.74406 20 6.12903 20V18.0645C3.81299 18.0645 1.93548 16.187 1.93548 13.871H0ZM6.12903 20H13.871V18.0645H6.12903V20ZM13.871 20C17.256 20 20 17.256 20 13.871H18.0645C18.0645 16.187 16.187 18.0645 13.871 18.0645V20ZM20 13.871V8.70968H18.0645V13.871H20ZM1.93548 8.70968V6.12903H0V8.70968H1.93548ZM1.93548 6.12903C1.93548 3.81299 3.81299 1.93548 6.12903 1.93548V0C2.74406 0 0 2.74406 0 6.12903H1.93548ZM6.12903 1.93548H10V0H6.12903V1.93548ZM20 8.70968V6.12903H18.0645V8.70968H20ZM20 6.12903C20 2.74406 17.256 0 13.871 0V1.93548C16.187 1.93548 18.0645 3.81299 18.0645 6.12903H20ZM13.871 0H10V1.93548H13.871V0Z" fill="#697BFF"/>
</svg>
