<svg width="177" height="32" viewBox="0 0 177 32" fill="none" xmlns="http://www.w3.org/2000/svg">
<path d="M31.4171 23.109V23.1317L28.0324 25.0899L28.0085 25.0761V25.1051C24.906 26.8995 20.9253 29.2043 17.8253 31L14.6523 29.1627L14.6511 28.8955L14.4204 29.0291L11.2399 27.1881L11.2386 26.9323L11.0181 27.0595L7.82743 25.2122V24.9664L7.61447 25.0887L4.41499 23.2363C4.41247 21.1571 4.40743 17.4308 4.40491 15.3504L7.61447 17.2091L7.81735 17.3263L7.82239 21.0298L7.61447 21.1495C10.8076 22.9994 14.8678 25.3483 18.0597 27.1969L18.0585 26.9234L21.2264 25.0887L21.4671 25.2286V24.9501L24.6288 23.1191L24.8745 23.2615V22.9767C24.9174 22.9528 27.9908 21.1722 28.0324 21.1495L28.0034 21.1331L27.9984 17.2292C28.0412 17.2028 31.3642 15.2811 31.407 15.2559C31.4096 17.2204 31.4146 21.1457 31.4171 23.109Z" fill="#697BFF" stroke="#697BFF" stroke-miterlimit="10"/>
<path d="M34.822 10.8341V10.8668L31.4473 12.8213L31.4146 12.8024V12.839L28.045 14.7909L28.0072 14.7695V14.8123L24.877 16.6244L24.6414 16.7617L21.4646 14.922V14.6598L21.239 14.7909L18.0534 12.9473L18.0521 12.6953L17.8354 12.8213L14.6409 10.9714L14.6397 10.7308L17.8366 8.88087C19.7495 9.98601 22.9603 11.8497 24.8732 12.9549L24.872 12.6877C24.9287 12.655 27.9883 10.8832 28.0437 10.8517C27.9908 10.8177 24.9211 9.04343 24.8682 9.01193V8.74982L24.6414 8.88087L21.4557 7.03604V6.78527L21.239 6.91129L18.0433 5.06141V4.82072C14.8665 6.658 10.8026 9.01193 7.62704 10.8505C11.9392 13.3468 16.9268 16.235 21.239 18.7313L18.0622 20.5699L17.8354 20.7009L14.6498 18.8574V18.6066L14.433 18.7313L11.2373 16.8815V16.6408L11.0294 16.7617L7.82488 14.9056V14.6775L7.62704 14.7909L4.4137 12.9309L4.41244 12.7117L4.22468 12.8213L1.00126 10.9551L1 10.7471L4.22468 8.88087L4.40866 8.98673V8.77502L7.62704 6.91129L7.81606 7.01966V6.80165L11.0307 4.94044L11.2235 5.05259V4.82954L14.433 2.97085L14.6309 3.08552V2.85617L17.8366 1C20.9202 2.78561 24.9136 5.09795 27.9971 6.88356V6.93775L28.045 6.91003L31.4095 8.85945L31.4108 8.9023L31.4473 8.88087L34.822 10.8341Z" fill="#697BFF" stroke="#697BFF" stroke-miterlimit="10"/>
<path d="M46.8984 22V4.82031H59.3203V6.84766H49.1719V12.1094H58.6758V14.125H49.1719V19.9727H59.7188V22H46.8984ZM64.1695 16.8438V14.7227H70.65V16.8438H64.1695ZM75.3352 22V4.82031H77.4445V22H75.3352ZM91.6453 17.9922L93.825 18.2617C93.4813 19.5352 92.8445 20.5234 91.9148 21.2266C90.9852 21.9297 89.7977 22.2812 88.3523 22.2812C86.532 22.2812 85.0867 21.7227 84.0164 20.6055C82.9539 19.4805 82.4227 17.9062 82.4227 15.8828C82.4227 13.7891 82.9617 12.1641 84.0398 11.0078C85.118 9.85156 86.5164 9.27344 88.2352 9.27344C89.8992 9.27344 91.2586 9.83984 92.3133 10.9727C93.368 12.1055 93.8953 13.6992 93.8953 15.7539C93.8953 15.8789 93.8914 16.0664 93.8836 16.3164H84.6023C84.6805 17.6836 85.0672 18.7305 85.7625 19.457C86.4578 20.1836 87.325 20.5469 88.3641 20.5469C89.1375 20.5469 89.7977 20.3438 90.3445 19.9375C90.8914 19.5312 91.325 18.8828 91.6453 17.9922ZM84.7195 14.582H91.6688C91.575 13.5352 91.3094 12.75 90.8719 12.2266C90.2 11.4141 89.3289 11.0078 88.2586 11.0078C87.2898 11.0078 86.4734 11.332 85.8094 11.9805C85.1531 12.6289 84.7898 13.4961 84.7195 14.582ZM107.006 20.4648C106.225 21.1289 105.471 21.5977 104.745 21.8711C104.026 22.1445 103.252 22.2812 102.424 22.2812C101.057 22.2812 100.006 21.9492 99.2719 21.2852C98.5375 20.6133 98.1703 19.7578 98.1703 18.7188C98.1703 18.1094 98.307 17.5547 98.5805 17.0547C98.8617 16.5469 99.225 16.1406 99.6703 15.8359C100.123 15.5312 100.631 15.3008 101.194 15.1445C101.608 15.0352 102.233 14.9297 103.069 14.8281C104.772 14.625 106.026 14.3828 106.83 14.1016C106.838 13.8125 106.842 13.6289 106.842 13.5508C106.842 12.6914 106.643 12.0859 106.245 11.7344C105.705 11.2578 104.905 11.0195 103.842 11.0195C102.85 11.0195 102.116 11.1953 101.639 11.5469C101.17 11.8906 100.823 12.5039 100.596 13.3867L98.5336 13.1055C98.7211 12.2227 99.0297 11.5117 99.4594 10.9727C99.8891 10.4258 100.51 10.0078 101.323 9.71875C102.135 9.42188 103.077 9.27344 104.147 9.27344C105.209 9.27344 106.073 9.39844 106.737 9.64844C107.401 9.89844 107.889 10.2148 108.202 10.5977C108.514 10.9727 108.733 11.4492 108.858 12.0273C108.928 12.3867 108.963 13.0352 108.963 13.9727V16.7852C108.963 18.7461 109.006 19.9883 109.092 20.5117C109.186 21.0273 109.366 21.5234 109.631 22H107.428C107.209 21.5625 107.069 21.0508 107.006 20.4648ZM106.83 15.7539C106.065 16.0664 104.916 16.332 103.385 16.5508C102.518 16.6758 101.905 16.8164 101.545 16.9727C101.186 17.1289 100.909 17.3594 100.713 17.6641C100.518 17.9609 100.42 18.293 100.42 18.6602C100.42 19.2227 100.631 19.6914 101.053 20.0664C101.483 20.4414 102.108 20.6289 102.928 20.6289C103.741 20.6289 104.463 20.4531 105.096 20.1016C105.729 19.7422 106.194 19.2539 106.491 18.6367C106.717 18.1602 106.83 17.457 106.83 16.5273V15.7539ZM114.621 22V9.55469H116.52V11.4414C117.004 10.5586 117.449 9.97656 117.855 9.69531C118.27 9.41406 118.723 9.27344 119.215 9.27344C119.926 9.27344 120.648 9.5 121.383 9.95312L120.656 11.9102C120.141 11.6055 119.625 11.4531 119.109 11.4531C118.648 11.4531 118.234 11.5938 117.867 11.875C117.5 12.1484 117.238 12.5312 117.082 13.0234C116.848 13.7734 116.73 14.5938 116.73 15.4844V22H114.621ZM125.037 22V9.55469H126.935V11.3242C127.849 9.95703 129.17 9.27344 130.896 9.27344C131.646 9.27344 132.334 9.41016 132.959 9.68359C133.591 9.94922 134.064 10.3008 134.377 10.7383C134.689 11.1758 134.908 11.6953 135.033 12.2969C135.111 12.6875 135.15 13.3711 135.15 14.3477V22H133.041V14.4297C133.041 13.5703 132.959 12.9297 132.795 12.5078C132.63 12.0781 132.338 11.7383 131.916 11.4883C131.502 11.2305 131.013 11.1016 130.451 11.1016C129.552 11.1016 128.775 11.3867 128.119 11.957C127.47 12.5273 127.146 13.6094 127.146 15.2031V22H125.037ZM140.808 7.24609V4.82031H142.917V7.24609H140.808ZM140.808 22V9.55469H142.917V22H140.808ZM148.54 22V9.55469H150.438V11.3242C151.352 9.95703 152.673 9.27344 154.399 9.27344C155.149 9.27344 155.837 9.41016 156.462 9.68359C157.095 9.94922 157.567 10.3008 157.88 10.7383C158.192 11.1758 158.411 11.6953 158.536 12.2969C158.614 12.6875 158.653 13.3711 158.653 14.3477V22H156.544V14.4297C156.544 13.5703 156.462 12.9297 156.298 12.5078C156.134 12.0781 155.841 11.7383 155.419 11.4883C155.005 11.2305 154.516 11.1016 153.954 11.1016C153.055 11.1016 152.278 11.3867 151.622 11.957C150.973 12.5273 150.649 13.6094 150.649 15.2031V22H148.54ZM163.912 23.0312L165.963 23.3359C166.049 23.9688 166.287 24.4297 166.678 24.7188C167.202 25.1094 167.916 25.3047 168.823 25.3047C169.799 25.3047 170.553 25.1094 171.084 24.7188C171.616 24.3281 171.975 23.7812 172.162 23.0781C172.272 22.6484 172.323 21.7461 172.315 20.3711C171.393 21.457 170.245 22 168.87 22C167.159 22 165.834 21.3828 164.897 20.1484C163.959 18.9141 163.491 17.4336 163.491 15.707C163.491 14.5195 163.705 13.4258 164.135 12.4258C164.565 11.418 165.186 10.6406 165.998 10.0938C166.819 9.54688 167.78 9.27344 168.881 9.27344C170.35 9.27344 171.561 9.86719 172.514 11.0547V9.55469H174.459V20.3125C174.459 22.25 174.26 23.6211 173.862 24.4258C173.471 25.2383 172.846 25.8789 171.987 26.3477C171.135 26.8164 170.084 27.0508 168.834 27.0508C167.35 27.0508 166.151 26.7148 165.237 26.043C164.323 25.3789 163.881 24.375 163.912 23.0312ZM165.659 15.5547C165.659 17.1875 165.983 18.3789 166.631 19.1289C167.28 19.8789 168.092 20.2539 169.069 20.2539C170.037 20.2539 170.85 19.8828 171.506 19.1406C172.162 18.3906 172.491 17.2188 172.491 15.625C172.491 14.1016 172.151 12.9531 171.471 12.1797C170.799 11.4062 169.987 11.0195 169.034 11.0195C168.096 11.0195 167.299 11.4023 166.643 12.168C165.987 12.9258 165.659 14.0547 165.659 15.5547Z" fill="white"/>
</svg>
