<svg width="22" height="22" viewBox="0 0 22 22" fill="none" xmlns="http://www.w3.org/2000/svg">
<path d="M21 11C21 16.5229 16.5229 21 11 21C9.66989 21 8.40033 20.7403 7.23943 20.2688C7.01724 20.1786 6.90616 20.1334 6.81636 20.1133C6.72851 20.0937 6.6635 20.0864 6.57348 20.0864C6.48145 20.0864 6.38121 20.1031 6.18072 20.1366L2.22751 20.7954C1.81353 20.8644 1.60654 20.8989 1.45687 20.8347C1.32587 20.7786 1.22148 20.6741 1.16529 20.5431C1.10109 20.3934 1.13559 20.1864 1.20459 19.7724L1.86346 15.8193C1.89687 15.6188 1.91358 15.5186 1.91357 15.4266C1.91356 15.3364 1.90636 15.2714 1.88667 15.1837C1.86653 15.0939 1.82141 14.9828 1.73118 14.7606C1.25971 13.5997 1 12.3301 1 11C1 5.47716 5.47716 1 11 1C16.5229 1 21 5.47716 21 11Z" stroke="#697BFF" stroke-width="2" stroke-linecap="round" stroke-linejoin="round"/>
</svg>
